<svg width="20" height="18" viewBox="0 0 20 18" fill="none" xmlns="http://www.w3.org/2000/svg">
<path d="M10 9.75049C12.619 9.75049 14.75 7.61949 14.75 5.00049C14.75 2.38149 12.619 0.250488 10 0.250488C7.381 0.250488 5.25 2.38149 5.25 5.00049C5.25 7.61949 7.381 9.75049 10 9.75049ZM10 1.75049C11.792 1.75049 13.25 3.20849 13.25 5.00049C13.25 6.79249 11.792 8.25049 10 8.25049C8.208 8.25049 6.75 6.79249 6.75 5.00049C6.75 3.20849 8.208 1.75049 10 1.75049ZM16.75 14.4005V15.2665C16.75 16.0935 16.447 16.8865 15.898 17.4995C15.751 17.6655 15.545 17.7495 15.339 17.7495C15.16 17.7495 14.982 17.6865 14.839 17.5585C14.53 17.2825 14.504 16.8085 14.78 16.4995C15.082 16.1615 15.249 15.7235 15.249 15.2665V14.4005C15.249 13.1515 14.421 12.0715 13.236 11.7745C13.042 11.7255 12.84 11.7525 12.675 11.8455C11.013 12.7715 8.977 12.7675 7.328 11.8495C7.155 11.7515 6.95302 11.7264 6.76202 11.7734C5.57602 12.0714 4.74799 13.1515 4.74799 14.4005V15.2665C4.74799 15.7235 4.91498 16.1615 5.21698 16.4995C5.49298 16.8085 5.46702 17.2825 5.15802 17.5585C4.85002 17.8335 4.375 17.8085 4.099 17.4995C3.55 16.8865 3.24701 16.0925 3.24701 15.2665V14.4005C3.24701 12.4635 4.54098 10.7855 6.39398 10.3185C6.95398 10.1765 7.56501 10.2575 8.06201 10.5425C9.25301 11.2045 10.733 11.2085 11.938 10.5385C12.428 10.2575 13.037 10.1755 13.6 10.3195C15.456 10.7855 16.75 12.4635 16.75 14.4005ZM15.293 0.921509C15.431 0.531509 15.859 0.326478 16.25 0.464478C17.745 0.992478 18.75 2.41349 18.75 4.00049C18.75 5.06649 18.294 6.08453 17.5 6.79553C17.356 6.92353 17.178 6.98645 17 6.98645C16.794 6.98645 16.589 6.90245 16.441 6.73645C16.165 6.42745 16.191 5.95349 16.5 5.67749C16.977 5.25149 17.25 4.64049 17.25 4.00049C17.25 3.04849 16.647 2.19554 15.75 1.87854C15.359 1.74054 15.155 1.31151 15.293 0.921509ZM19.75 11.8335V12.5555C19.75 12.9695 19.414 13.3055 19 13.3055C18.586 13.3055 18.25 12.9695 18.25 12.5555V11.8335C18.25 10.8505 17.599 10.0005 16.667 9.76648C16.266 9.66548 16.021 9.25845 16.122 8.85645C16.224 8.45444 16.633 8.21152 17.032 8.31152C18.633 8.71352 19.75 10.1615 19.75 11.8335ZM2.5 7.2395C1.706 6.5285 1.25 5.51046 1.25 4.44446C1.25 2.85746 2.255 1.43645 3.75 0.908447C4.144 0.770447 4.56897 0.975479 4.70697 1.36548C4.84497 1.75648 4.641 2.18451 4.25 2.32251C3.353 2.63951 2.75 3.49246 2.75 4.44446C2.75 5.08346 3.023 5.69446 3.5 6.12146C3.809 6.39746 3.83502 6.87154 3.55902 7.18054C3.41202 7.34654 3.206 7.43054 3 7.43054C2.822 7.43054 2.643 7.3675 2.5 7.2395ZM3.33301 10.2104C2.40101 10.4444 1.75 11.2945 1.75 12.2775V13.0005C1.75 13.4145 1.414 13.7505 1 13.7505C0.586 13.7505 0.25 13.4145 0.25 13.0005V12.2784C0.25 10.6064 1.36802 9.15847 2.96802 8.75647C3.36902 8.65847 3.77699 8.89951 3.87799 9.30151C3.97899 9.70151 3.73501 10.1094 3.33301 10.2104Z" fill="#FFC021"/>
</svg>
