<svg width="16" height="16" viewBox="0 0 16 16" fill="none" xmlns="http://www.w3.org/2000/svg">
<path d="M14.75 2.93677H12.0807C11.6765 2.93677 11.3188 2.67876 11.1913 2.29626L10.9543 1.58453C10.775 1.04753 10.2747 0.6875 9.70924 0.6875H6.28998C5.72448 0.6875 5.22425 1.04752 5.045 1.58527L4.80801 2.29626C4.68051 2.67951 4.32274 2.9375 3.91849 2.9375H1.25C0.9395 2.9375 0.6875 3.1895 0.6875 3.5C0.6875 3.8105 0.9395 4.0625 1.25 4.0625H2.22348L2.79875 12.6875C2.897 14.1597 4.12926 15.3125 5.60526 15.3125H10.3955C11.8707 15.3125 13.1037 14.159 13.202 12.6875L13.7773 4.0625H14.75C15.0605 4.0625 15.3125 3.8105 15.3125 3.5C15.3125 3.1895 15.0605 2.93677 14.75 2.93677ZM6.11223 1.94003C6.13773 1.86353 6.20898 1.81177 6.28998 1.81177H9.70924C9.79024 1.81177 9.86149 1.86355 9.88699 1.9393L10.124 2.65103C10.157 2.75003 10.1982 2.84529 10.2447 2.93604H5.75375C5.80025 2.84454 5.84151 2.75005 5.87451 2.6503L6.11223 1.94003ZM12.0785 12.6118C12.02 13.4953 11.2805 14.1868 10.3947 14.1868H5.60452C4.71952 14.1868 3.97923 13.4953 3.92073 12.6118L3.35077 4.06177H3.91849C3.99874 4.06177 4.0775 4.052 4.15625 4.043C4.18775 4.04825 4.21627 4.06177 4.24927 4.06177H11.7493C11.7823 4.06177 11.8107 4.04825 11.8422 4.043C11.921 4.052 11.999 4.06177 12.08 4.06177H12.6478L12.0785 12.6118ZM10.0625 7.24927V10.9993C10.0625 11.3098 9.8105 11.5618 9.5 11.5618C9.1895 11.5618 8.9375 11.3098 8.9375 10.9993V7.24927C8.9375 6.93877 9.1895 6.68677 9.5 6.68677C9.8105 6.68677 10.0625 6.93877 10.0625 7.24927ZM7.0625 7.24927V10.9993C7.0625 11.3098 6.8105 11.5618 6.5 11.5618C6.1895 11.5618 5.9375 11.3098 5.9375 10.9993V7.24927C5.9375 6.93877 6.1895 6.68677 6.5 6.68677C6.8105 6.68677 7.0625 6.93877 7.0625 7.24927Z" fill="#3E3F44" fill-opacity="0.87"/>
</svg>
