<svg width="24" height="24" viewBox="0 0 24 24" fill="none" xmlns="http://www.w3.org/2000/svg">
<path d="M18.0904 5.91036C17.5038 5.32305 16.7234 5 15.892 5C15.0621 5 14.2817 5.32305 13.6937 5.91036L6.1316 13.473C5.83868 13.7652 5.64772 14.1363 5.57951 14.5448L5.01235 17.9467C4.96425 18.2346 5.0583 18.529 5.26506 18.7351C5.43593 18.9059 5.66709 19 5.90544 19C5.95426 19 6.00456 18.9964 6.05338 18.9878L9.45567 18.4206C9.86346 18.3531 10.2339 18.1621 10.5268 17.8691L18.0889 10.3066C18.6762 9.71931 19 8.93885 19 8.10814C19 7.27743 18.6784 6.49768 18.0904 5.91036ZM9.76728 17.1081C9.63374 17.2416 9.46575 17.3278 9.28053 17.3587L6.11582 17.8857L6.6428 14.7215C6.67367 14.5356 6.76054 14.3676 6.89336 14.2348L12.6965 8.43129L15.5697 11.3046L9.76728 17.1081ZM17.3294 9.5456L16.3314 10.5435L13.4582 7.67018L14.4562 6.67217C14.8403 6.28877 15.35 6.07698 15.8927 6.07698C16.4355 6.07698 16.946 6.28805 17.3294 6.67217C17.7128 7.05629 17.9245 7.56605 17.9245 8.10884C17.9245 8.65164 17.7128 9.16148 17.3294 9.5456Z" fill="#3E3F44" fill-opacity="0.87"/>
</svg>
