<svg width="24" height="24" viewBox="0 0 24 24" fill="none" xmlns="http://www.w3.org/2000/svg">
<path d="M11.125 16.8125H5" stroke="#3E3F44" stroke-opacity="0.87" stroke-linecap="round" stroke-linejoin="round"/>
<path fill-rule="evenodd" clip-rule="evenodd" d="M19 16.8125C19 18.0209 18.0209 19 16.8125 19C15.6041 19 14.625 18.0209 14.625 16.8125C14.625 15.6033 15.6041 14.625 16.8125 14.625C18.0209 14.625 19 15.6033 19 16.8125Z" stroke="#3E3F44" stroke-opacity="0.87" stroke-linecap="round" stroke-linejoin="round"/>
<path d="M12.875 7.1875H19" stroke="#3E3F44" stroke-opacity="0.87" stroke-linecap="round" stroke-linejoin="round"/>
<path fill-rule="evenodd" clip-rule="evenodd" d="M5 7.1875C5 8.39675 5.97912 9.375 7.1875 9.375C8.39588 9.375 9.375 8.39675 9.375 7.1875C9.375 5.97912 8.39588 5 7.1875 5C5.97912 5 5 5.97912 5 7.1875Z" stroke="#3E3F44" stroke-opacity="0.87" stroke-linecap="round" stroke-linejoin="round"/>
</svg>
