<svg width="28" height="28" viewBox="0 0 28 28" fill="none" xmlns="http://www.w3.org/2000/svg">
<path d="M25.6663 7.29167C25.6663 7.93683 25.1437 8.45833 24.4997 8.45833H3.49967C2.85567 8.45833 2.33301 7.93683 2.33301 7.29167C2.33301 6.6465 2.85567 6.125 3.49967 6.125H7.65187C8.1547 6.125 8.59917 5.80524 8.759 5.3269L9.12764 4.22091C9.44614 3.26657 10.3364 2.625 11.3409 2.625H16.6597C17.6654 2.625 18.5555 3.2666 18.8728 4.21977L19.2415 5.32804C19.4002 5.80404 19.8459 6.125 20.3487 6.125H24.4997C25.1437 6.125 25.6663 6.6465 25.6663 7.29167ZM22.5163 10.8267L21.8047 21.56C21.653 23.7066 19.8563 25.375 17.7213 25.375H10.278C8.143 25.375 6.34634 23.7067 6.19467 21.5717L5.48302 10.8267C5.47136 10.675 5.52969 10.5116 5.63469 10.3949C5.75136 10.2782 5.90302 10.2083 6.06636 10.2083H21.933C22.0963 10.2083 22.248 10.2782 22.3647 10.3949C22.4697 10.5116 22.528 10.675 22.5163 10.8267ZM12.833 14.2917C12.833 13.65 12.308 13.125 11.6663 13.125C11.0247 13.125 10.4997 13.65 10.4997 14.2917V20.125C10.4997 20.7667 11.0247 21.2917 11.6663 21.2917C12.308 21.2917 12.833 20.7667 12.833 20.125V14.2917ZM17.4997 14.2917C17.4997 13.65 16.9747 13.125 16.333 13.125C15.6913 13.125 15.1663 13.65 15.1663 14.2917V20.125C15.1663 20.7667 15.6913 21.2917 16.333 21.2917C16.9747 21.2917 17.4997 20.7667 17.4997 20.125V14.2917Z" fill="white"/>
</svg>
