<svg width="26" height="28" viewBox="0 0 26 28" fill="none" xmlns="http://www.w3.org/2000/svg">
<path d="M23.9225 8.33333L17.165 15.0909C16.7684 15.4875 16.5417 16.0259 16.5417 16.5926V22.5C16.5417 22.7267 16.4425 22.939 16.2584 23.0665L10.5917 27.3165C10.4642 27.4157 10.3225 27.4583 10.1667 27.4583C10.0534 27.4583 9.95421 27.4299 9.85504 27.3874C9.61421 27.2599 9.45837 27.0192 9.45837 26.75V16.5926C9.45837 16.0259 9.2317 15.4875 8.83504 15.0909L2.07755 8.33333H23.9225ZM22.2084 0.541668H3.79171C2.23337 0.541668 0.958374 1.81667 0.958374 3.375V5.5H25.0417V3.375C25.0417 1.81667 23.7667 0.541668 22.2084 0.541668Z" fill="#014D40"/>
</svg>
