<svg width="34" height="34" viewBox="0 0 34 34" fill="none" xmlns="http://www.w3.org/2000/svg">
<path d="M28.1277 19.1053C27.5891 19.6443 26.8445 19.9776 26.0227 19.9776H19.9771V26.0232C19.9771 26.8451 19.6437 27.5896 19.1051 28.1285C18.5661 28.6667 17.8221 29 16.9995 29C15.3552 29 14.0221 27.6669 14.0221 26.0221L14.0227 19.9773L7.97733 19.9771C6.33307 19.9779 5 18.6445 5 17.0003C5 15.3555 6.33307 14.0221 7.97733 14.0229L14.0227 14.0224L14.0229 7.9768C14.0227 6.33307 15.356 4.99973 17.0005 5C18.6445 5 19.9779 6.33307 19.9771 7.97707L19.9773 14.0227L26.0221 14.0224C27.6669 14.0221 29 15.3552 29 16.9997C29 17.8216 28.6664 18.5664 28.1277 19.1053Z" fill="#014D40"/>
</svg>
