<svg width="24" height="24" viewBox="0 0 24 24" fill="none" xmlns="http://www.w3.org/2000/svg">
<path d="M20.0037 3.99595C17.6945 1.68678 14.422 0.355116 10.8237 0.723449C5.62452 1.24762 1.34619 5.46928 0.765355 10.6685C-0.0138118 17.5393 5.29869 23.3335 11.9995 23.3335C16.5187 23.3335 20.4004 20.6843 22.2137 16.8734C22.667 15.9243 21.987 14.8335 20.9387 14.8335C20.4145 14.8335 19.9187 15.1168 19.692 15.5843C18.0912 19.0268 14.252 21.2085 10.0587 20.2735C6.91369 19.5793 4.37786 17.0151 3.71202 13.8701C2.52202 8.37345 6.70119 3.50012 11.9995 3.50012C14.3512 3.50012 16.4479 4.47762 17.9779 6.02178L15.8387 8.16095C14.9462 9.05345 15.5695 10.5835 16.8304 10.5835H21.9162C22.6954 10.5835 23.3329 9.94595 23.3329 9.16678V4.08095C23.3329 2.82012 21.8029 2.18262 20.9104 3.07512L20.0037 3.99595Z" fill="#014D40"/>
</svg>
